<mxfile>
    <diagram id="R5Pnvn7JVJgR0JoYsQ4H" name="HttpSync">
        <mxGraphModel dx="658" dy="481" grid="0" gridSize="10" guides="1" tooltips="1" connect="1" arrows="1" fold="1" page="1" pageScale="1" pageWidth="850" pageHeight="1100" math="0" shadow="0">
            <root>
                <mxCell id="0"/>
                <mxCell id="1" parent="0"/>
                <mxCell id="2" value="" style="endArrow=classic;html=1;" parent="1" edge="1">
                    <mxGeometry width="50" height="50" relative="1" as="geometry">
                        <mxPoint x="104" y="267" as="sourcePoint"/>
                        <mxPoint x="362" y="267" as="targetPoint"/>
                    </mxGeometry>
                </mxCell>
                <mxCell id="3" value="time (seconds)" style="edgeLabel;html=1;align=center;verticalAlign=middle;resizable=0;points=[];" parent="2" vertex="1" connectable="0">
                    <mxGeometry x="-0.1842" y="-2" relative="1" as="geometry">
                        <mxPoint x="15" y="8" as="offset"/>
                    </mxGeometry>
                </mxCell>
                <mxCell id="4" value="" style="rounded=0;whiteSpace=wrap;html=1;fillColor=#e1d5e7;" parent="1" vertex="1">
                    <mxGeometry x="114" y="230" width="10" height="20" as="geometry"/>
                </mxCell>
                <mxCell id="5" value="" style="rounded=0;whiteSpace=wrap;html=1;" parent="1" vertex="1">
                    <mxGeometry x="40" y="15" width="90" height="128" as="geometry"/>
                </mxCell>
                <mxCell id="6" value="" style="rounded=0;whiteSpace=wrap;html=1;fillColor=#e1d5e7;strokeColor=#9673a6;" parent="1" vertex="1">
                    <mxGeometry x="50" y="40" width="30" height="20" as="geometry"/>
                </mxCell>
                <mxCell id="11" value="R1" style="text;html=1;strokeColor=none;fillColor=none;align=center;verticalAlign=middle;whiteSpace=wrap;rounded=0;" parent="1" vertex="1">
                    <mxGeometry x="80" y="40" width="40" height="20" as="geometry"/>
                </mxCell>
                <mxCell id="12" value="" style="rounded=0;whiteSpace=wrap;html=1;fillColor=#dae8fc;strokeColor=#6c8ebf;" parent="1" vertex="1">
                    <mxGeometry x="50" y="65" width="30" height="20" as="geometry"/>
                </mxCell>
                <mxCell id="13" value="R2" style="text;html=1;strokeColor=none;fillColor=none;align=center;verticalAlign=middle;whiteSpace=wrap;rounded=0;" parent="1" vertex="1">
                    <mxGeometry x="80" y="65" width="40" height="20" as="geometry"/>
                </mxCell>
                <mxCell id="14" value="" style="rounded=0;whiteSpace=wrap;html=1;fillColor=#d5e8d4;strokeColor=#82b366;" parent="1" vertex="1">
                    <mxGeometry x="50" y="90" width="30" height="20" as="geometry"/>
                </mxCell>
                <mxCell id="15" value="R3" style="text;html=1;strokeColor=none;fillColor=none;align=center;verticalAlign=middle;whiteSpace=wrap;rounded=0;" parent="1" vertex="1">
                    <mxGeometry x="80" y="90" width="40" height="20" as="geometry"/>
                </mxCell>
                <mxCell id="17" value="" style="rounded=0;whiteSpace=wrap;html=1;fillColor=#bac8d3;strokeColor=#23445d;" parent="1" vertex="1">
                    <mxGeometry x="50" y="115" width="30" height="20" as="geometry"/>
                </mxCell>
                <mxCell id="18" value="Wait" style="text;html=1;strokeColor=none;fillColor=none;align=center;verticalAlign=middle;whiteSpace=wrap;rounded=0;" parent="1" vertex="1">
                    <mxGeometry x="80" y="115" width="40" height="20" as="geometry"/>
                </mxCell>
                <mxCell id="31" style="edgeStyle=orthogonalEdgeStyle;rounded=0;orthogonalLoop=1;jettySize=auto;html=1;entryX=0.5;entryY=1;entryDx=0;entryDy=0;" parent="1" source="19" target="28" edge="1">
                    <mxGeometry relative="1" as="geometry"/>
                </mxCell>
                <mxCell id="19" value="" style="rounded=0;whiteSpace=wrap;html=1;fillColor=#bac8d3;strokeColor=#23445d;" parent="1" vertex="1">
                    <mxGeometry x="124" y="210" width="100" height="20" as="geometry"/>
                </mxCell>
                <mxCell id="20" value="" style="rounded=0;whiteSpace=wrap;html=1;fillColor=#e1d5e7;" parent="1" vertex="1">
                    <mxGeometry x="224" y="230" width="10" height="20" as="geometry"/>
                </mxCell>
                <mxCell id="21" value="" style="rounded=0;whiteSpace=wrap;html=1;fillColor=#dae8fc;" parent="1" vertex="1">
                    <mxGeometry x="234" y="230" width="10" height="20" as="geometry"/>
                </mxCell>
                <mxCell id="32" style="edgeStyle=orthogonalEdgeStyle;rounded=0;orthogonalLoop=1;jettySize=auto;html=1;entryX=0.5;entryY=1;entryDx=0;entryDy=0;" parent="1" source="22" target="29" edge="1">
                    <mxGeometry relative="1" as="geometry"/>
                </mxCell>
                <mxCell id="22" value="" style="rounded=0;whiteSpace=wrap;html=1;fillColor=#bac8d3;strokeColor=#23445d;" parent="1" vertex="1">
                    <mxGeometry x="243.5" y="210" width="20" height="20" as="geometry"/>
                </mxCell>
                <mxCell id="33" style="edgeStyle=orthogonalEdgeStyle;rounded=0;orthogonalLoop=1;jettySize=auto;html=1;entryX=0.5;entryY=1;entryDx=0;entryDy=0;" parent="1" source="24" target="30" edge="1">
                    <mxGeometry relative="1" as="geometry"/>
                </mxCell>
                <mxCell id="24" value="" style="rounded=0;whiteSpace=wrap;html=1;fillColor=#bac8d3;strokeColor=#23445d;" parent="1" vertex="1">
                    <mxGeometry x="283" y="210" width="50" height="20" as="geometry"/>
                </mxCell>
                <mxCell id="25" value="" style="rounded=0;whiteSpace=wrap;html=1;fillColor=#dae8fc;" parent="1" vertex="1">
                    <mxGeometry x="263.5" y="230" width="10" height="20" as="geometry"/>
                </mxCell>
                <mxCell id="26" value="" style="rounded=0;whiteSpace=wrap;html=1;fillColor=#d5e8d4;" parent="1" vertex="1">
                    <mxGeometry x="273.5" y="230" width="10" height="20" as="geometry"/>
                </mxCell>
                <mxCell id="27" value="" style="rounded=0;whiteSpace=wrap;html=1;fillColor=#d5e8d4;" parent="1" vertex="1">
                    <mxGeometry x="333" y="230" width="10" height="20" as="geometry"/>
                </mxCell>
                <mxCell id="28" value="waiting R1" style="text;html=1;strokeColor=none;fillColor=none;align=center;verticalAlign=middle;whiteSpace=wrap;rounded=0;" parent="1" vertex="1">
                    <mxGeometry x="141.5" y="167" width="65" height="20" as="geometry"/>
                </mxCell>
                <mxCell id="29" value="waiting R2" style="text;html=1;strokeColor=none;fillColor=none;align=center;verticalAlign=middle;whiteSpace=wrap;rounded=0;" parent="1" vertex="1">
                    <mxGeometry x="221" y="167" width="65" height="20" as="geometry"/>
                </mxCell>
                <mxCell id="30" value="waiting R3" style="text;html=1;strokeColor=none;fillColor=none;align=center;verticalAlign=middle;whiteSpace=wrap;rounded=0;" parent="1" vertex="1">
                    <mxGeometry x="275.5" y="143" width="65" height="20" as="geometry"/>
                </mxCell>
                <mxCell id="34" value="&lt;b&gt;Legend&lt;/b&gt;" style="text;html=1;strokeColor=none;fillColor=none;align=center;verticalAlign=middle;whiteSpace=wrap;rounded=0;" parent="1" vertex="1">
                    <mxGeometry x="50" y="20" width="65" height="20" as="geometry"/>
                </mxCell>
                <mxCell id="lJso728PyXMVdRfDYrXu-34" value="&lt;i style=&quot;font-size: 8px;&quot;&gt;Nothing&lt;/i&gt;" style="rounded=0;whiteSpace=wrap;html=1;strokeColor=#000000;align=center;fontSize=8;" parent="1" vertex="1">
                    <mxGeometry x="124" y="230" width="100" height="20" as="geometry"/>
                </mxCell>
                <mxCell id="lJso728PyXMVdRfDYrXu-35" value="&lt;i&gt;&lt;font style=&quot;font-size: 5px&quot;&gt;Nothing&lt;/font&gt;&lt;/i&gt;" style="rounded=0;whiteSpace=wrap;html=1;strokeColor=#000000;align=center;fontSize=8;" parent="1" vertex="1">
                    <mxGeometry x="243.5" y="230" width="20" height="20" as="geometry"/>
                </mxCell>
                <mxCell id="lJso728PyXMVdRfDYrXu-36" value="&lt;i style=&quot;font-size: 8px;&quot;&gt;Nothing&lt;/i&gt;" style="rounded=0;whiteSpace=wrap;html=1;strokeColor=#000000;align=center;fontSize=8;" parent="1" vertex="1">
                    <mxGeometry x="283" y="230" width="50" height="20" as="geometry"/>
                </mxCell>
            </root>
        </mxGraphModel>
    </diagram>
    <diagram name="HttpAsync" id="dd3H1sv4si_ocq5xEkjA">
        <mxGraphModel dx="658" dy="481" grid="0" gridSize="10" guides="1" tooltips="1" connect="1" arrows="1" fold="1" page="1" pageScale="1" pageWidth="850" pageHeight="1100" math="0" shadow="0">
            <root>
                <mxCell id="TjX_MduYWYXl7zdBqpjI-0"/>
                <mxCell id="TjX_MduYWYXl7zdBqpjI-1" parent="TjX_MduYWYXl7zdBqpjI-0"/>
                <mxCell id="TjX_MduYWYXl7zdBqpjI-5" value="" style="rounded=0;whiteSpace=wrap;html=1;" parent="TjX_MduYWYXl7zdBqpjI-1" vertex="1">
                    <mxGeometry x="40" y="15" width="90" height="128" as="geometry"/>
                </mxCell>
                <mxCell id="TjX_MduYWYXl7zdBqpjI-6" value="" style="rounded=0;whiteSpace=wrap;html=1;fillColor=#e1d5e7;strokeColor=#9673a6;" parent="TjX_MduYWYXl7zdBqpjI-1" vertex="1">
                    <mxGeometry x="50" y="40" width="30" height="20" as="geometry"/>
                </mxCell>
                <mxCell id="TjX_MduYWYXl7zdBqpjI-7" value="R1" style="text;html=1;strokeColor=none;fillColor=none;align=center;verticalAlign=middle;whiteSpace=wrap;rounded=0;" parent="TjX_MduYWYXl7zdBqpjI-1" vertex="1">
                    <mxGeometry x="80" y="40" width="40" height="20" as="geometry"/>
                </mxCell>
                <mxCell id="TjX_MduYWYXl7zdBqpjI-8" value="" style="rounded=0;whiteSpace=wrap;html=1;fillColor=#dae8fc;strokeColor=#6c8ebf;" parent="TjX_MduYWYXl7zdBqpjI-1" vertex="1">
                    <mxGeometry x="50" y="65" width="30" height="20" as="geometry"/>
                </mxCell>
                <mxCell id="TjX_MduYWYXl7zdBqpjI-9" value="R2" style="text;html=1;strokeColor=none;fillColor=none;align=center;verticalAlign=middle;whiteSpace=wrap;rounded=0;" parent="TjX_MduYWYXl7zdBqpjI-1" vertex="1">
                    <mxGeometry x="80" y="65" width="40" height="20" as="geometry"/>
                </mxCell>
                <mxCell id="TjX_MduYWYXl7zdBqpjI-10" value="" style="rounded=0;whiteSpace=wrap;html=1;fillColor=#d5e8d4;strokeColor=#82b366;" parent="TjX_MduYWYXl7zdBqpjI-1" vertex="1">
                    <mxGeometry x="50" y="90" width="30" height="20" as="geometry"/>
                </mxCell>
                <mxCell id="TjX_MduYWYXl7zdBqpjI-11" value="R3" style="text;html=1;strokeColor=none;fillColor=none;align=center;verticalAlign=middle;whiteSpace=wrap;rounded=0;" parent="TjX_MduYWYXl7zdBqpjI-1" vertex="1">
                    <mxGeometry x="80" y="90" width="40" height="20" as="geometry"/>
                </mxCell>
                <mxCell id="TjX_MduYWYXl7zdBqpjI-12" value="" style="rounded=0;whiteSpace=wrap;html=1;fillColor=#bac8d3;strokeColor=#23445d;" parent="TjX_MduYWYXl7zdBqpjI-1" vertex="1">
                    <mxGeometry x="50" y="115" width="30" height="20" as="geometry"/>
                </mxCell>
                <mxCell id="TjX_MduYWYXl7zdBqpjI-13" value="Wait" style="text;html=1;strokeColor=none;fillColor=none;align=center;verticalAlign=middle;whiteSpace=wrap;rounded=0;" parent="TjX_MduYWYXl7zdBqpjI-1" vertex="1">
                    <mxGeometry x="80" y="115" width="40" height="20" as="geometry"/>
                </mxCell>
                <mxCell id="TjX_MduYWYXl7zdBqpjI-28" value="&lt;b&gt;Legend&lt;/b&gt;" style="text;html=1;strokeColor=none;fillColor=none;align=center;verticalAlign=middle;whiteSpace=wrap;rounded=0;" parent="TjX_MduYWYXl7zdBqpjI-1" vertex="1">
                    <mxGeometry x="50" y="20" width="65" height="20" as="geometry"/>
                </mxCell>
                <mxCell id="oUYByNItfgu7oh0WLCte-0" value="" style="endArrow=classic;html=1;" parent="TjX_MduYWYXl7zdBqpjI-1" edge="1">
                    <mxGeometry width="50" height="50" relative="1" as="geometry">
                        <mxPoint x="141" y="256" as="sourcePoint"/>
                        <mxPoint x="293" y="256" as="targetPoint"/>
                    </mxGeometry>
                </mxCell>
                <mxCell id="oUYByNItfgu7oh0WLCte-1" value="time (seconds)" style="edgeLabel;html=1;align=center;verticalAlign=middle;resizable=0;points=[];" parent="oUYByNItfgu7oh0WLCte-0" vertex="1" connectable="0">
                    <mxGeometry x="-0.1842" y="-2" relative="1" as="geometry">
                        <mxPoint x="15" y="8" as="offset"/>
                    </mxGeometry>
                </mxCell>
                <mxCell id="oUYByNItfgu7oh0WLCte-2" value="" style="rounded=0;whiteSpace=wrap;html=1;fillColor=#e1d5e7;" parent="TjX_MduYWYXl7zdBqpjI-1" vertex="1">
                    <mxGeometry x="151" y="219" width="10" height="20" as="geometry"/>
                </mxCell>
                <mxCell id="oUYByNItfgu7oh0WLCte-3" style="edgeStyle=orthogonalEdgeStyle;rounded=0;orthogonalLoop=1;jettySize=auto;html=1;entryX=0;entryY=0.5;entryDx=0;entryDy=0;exitX=1;exitY=0.5;exitDx=0;exitDy=0;" parent="TjX_MduYWYXl7zdBqpjI-1" source="oUYByNItfgu7oh0WLCte-4" target="oUYByNItfgu7oh0WLCte-14" edge="1">
                    <mxGeometry relative="1" as="geometry"/>
                </mxCell>
                <mxCell id="oUYByNItfgu7oh0WLCte-4" value="" style="rounded=0;whiteSpace=wrap;html=1;fillColor=#bac8d3;strokeColor=#23445d;" parent="TjX_MduYWYXl7zdBqpjI-1" vertex="1">
                    <mxGeometry x="161" y="186" width="100" height="20" as="geometry"/>
                </mxCell>
                <mxCell id="oUYByNItfgu7oh0WLCte-5" value="" style="rounded=0;whiteSpace=wrap;html=1;fillColor=#e1d5e7;" parent="TjX_MduYWYXl7zdBqpjI-1" vertex="1">
                    <mxGeometry x="261" y="219" width="10" height="20" as="geometry"/>
                </mxCell>
                <mxCell id="oUYByNItfgu7oh0WLCte-6" value="" style="rounded=0;whiteSpace=wrap;html=1;fillColor=#dae8fc;" parent="TjX_MduYWYXl7zdBqpjI-1" vertex="1">
                    <mxGeometry x="161" y="219" width="10" height="20" as="geometry"/>
                </mxCell>
                <mxCell id="oUYByNItfgu7oh0WLCte-7" style="edgeStyle=orthogonalEdgeStyle;rounded=0;orthogonalLoop=1;jettySize=auto;html=1;entryX=0;entryY=0.5;entryDx=0;entryDy=0;" parent="TjX_MduYWYXl7zdBqpjI-1" source="oUYByNItfgu7oh0WLCte-8" target="oUYByNItfgu7oh0WLCte-15" edge="1">
                    <mxGeometry relative="1" as="geometry"/>
                </mxCell>
                <mxCell id="oUYByNItfgu7oh0WLCte-8" value="" style="rounded=0;whiteSpace=wrap;html=1;fillColor=#bac8d3;strokeColor=#23445d;" parent="TjX_MduYWYXl7zdBqpjI-1" vertex="1">
                    <mxGeometry x="172" y="161" width="20" height="20" as="geometry"/>
                </mxCell>
                <mxCell id="oUYByNItfgu7oh0WLCte-9" style="edgeStyle=orthogonalEdgeStyle;rounded=0;orthogonalLoop=1;jettySize=auto;html=1;entryX=0;entryY=0.5;entryDx=0;entryDy=0;" parent="TjX_MduYWYXl7zdBqpjI-1" source="oUYByNItfgu7oh0WLCte-10" target="oUYByNItfgu7oh0WLCte-16" edge="1">
                    <mxGeometry relative="1" as="geometry"/>
                </mxCell>
                <mxCell id="oUYByNItfgu7oh0WLCte-10" value="" style="rounded=0;whiteSpace=wrap;html=1;fillColor=#bac8d3;strokeColor=#23445d;" parent="TjX_MduYWYXl7zdBqpjI-1" vertex="1">
                    <mxGeometry x="181" y="136" width="50" height="20" as="geometry"/>
                </mxCell>
                <mxCell id="oUYByNItfgu7oh0WLCte-11" value="" style="rounded=0;whiteSpace=wrap;html=1;fillColor=#dae8fc;" parent="TjX_MduYWYXl7zdBqpjI-1" vertex="1">
                    <mxGeometry x="192" y="219" width="10" height="20" as="geometry"/>
                </mxCell>
                <mxCell id="oUYByNItfgu7oh0WLCte-12" value="" style="rounded=0;whiteSpace=wrap;html=1;fillColor=#d5e8d4;" parent="TjX_MduYWYXl7zdBqpjI-1" vertex="1">
                    <mxGeometry x="171" y="219" width="10" height="20" as="geometry"/>
                </mxCell>
                <mxCell id="oUYByNItfgu7oh0WLCte-13" value="" style="rounded=0;whiteSpace=wrap;html=1;fillColor=#d5e8d4;" parent="TjX_MduYWYXl7zdBqpjI-1" vertex="1">
                    <mxGeometry x="231" y="219" width="10" height="20" as="geometry"/>
                </mxCell>
                <mxCell id="oUYByNItfgu7oh0WLCte-14" value="waiting R1" style="text;html=1;strokeColor=none;fillColor=none;align=center;verticalAlign=middle;whiteSpace=wrap;rounded=0;" parent="TjX_MduYWYXl7zdBqpjI-1" vertex="1">
                    <mxGeometry x="303" y="186" width="65" height="20" as="geometry"/>
                </mxCell>
                <mxCell id="oUYByNItfgu7oh0WLCte-15" value="waiting R2" style="text;html=1;strokeColor=none;fillColor=none;align=center;verticalAlign=middle;whiteSpace=wrap;rounded=0;" parent="TjX_MduYWYXl7zdBqpjI-1" vertex="1">
                    <mxGeometry x="303" y="161" width="65" height="20" as="geometry"/>
                </mxCell>
                <mxCell id="oUYByNItfgu7oh0WLCte-16" value="waiting R3" style="text;html=1;strokeColor=none;fillColor=none;align=center;verticalAlign=middle;whiteSpace=wrap;rounded=0;" parent="TjX_MduYWYXl7zdBqpjI-1" vertex="1">
                    <mxGeometry x="303" y="136" width="65" height="20" as="geometry"/>
                </mxCell>
                <mxCell id="oUYByNItfgu7oh0WLCte-18" value="&lt;i&gt;&lt;font style=&quot;font-size: 3px&quot;&gt;Nothing&lt;/font&gt;&lt;/i&gt;" style="rounded=0;whiteSpace=wrap;html=1;strokeColor=#000000;align=center;fontSize=8;" parent="TjX_MduYWYXl7zdBqpjI-1" vertex="1">
                    <mxGeometry x="181" y="219" width="11" height="20" as="geometry"/>
                </mxCell>
                <mxCell id="b8tB5N2PraJOtb_QhcnW-5" value="&lt;i&gt;&lt;font style=&quot;font-size: 5px&quot;&gt;Nothing&lt;/font&gt;&lt;/i&gt;" style="rounded=0;whiteSpace=wrap;html=1;strokeColor=#000000;align=center;fontSize=8;" parent="TjX_MduYWYXl7zdBqpjI-1" vertex="1">
                    <mxGeometry x="202" y="219" width="29" height="20" as="geometry"/>
                </mxCell>
                <mxCell id="00yEARtn9fL40gI64DA2-0" value="&lt;i&gt;&lt;font style=&quot;font-size: 5px&quot;&gt;Nothing&lt;/font&gt;&lt;/i&gt;" style="rounded=0;whiteSpace=wrap;html=1;strokeColor=#000000;align=center;fontSize=8;" parent="TjX_MduYWYXl7zdBqpjI-1" vertex="1">
                    <mxGeometry x="241" y="219" width="20" height="20" as="geometry"/>
                </mxCell>
                <mxCell id="OgLarHgL8_il-0UodkWz-0" value="" style="endArrow=none;dashed=1;html=1;dashPattern=1 3;strokeWidth=1;" parent="TjX_MduYWYXl7zdBqpjI-1" edge="1">
                    <mxGeometry width="50" height="50" relative="1" as="geometry">
                        <mxPoint x="161" y="219" as="sourcePoint"/>
                        <mxPoint x="161" y="205" as="targetPoint"/>
                    </mxGeometry>
                </mxCell>
                <mxCell id="OgLarHgL8_il-0UodkWz-3" value="" style="endArrow=none;dashed=1;html=1;dashPattern=1 3;strokeWidth=1;entryX=0;entryY=1;entryDx=0;entryDy=0;" parent="TjX_MduYWYXl7zdBqpjI-1" edge="1" target="oUYByNItfgu7oh0WLCte-8">
                    <mxGeometry width="50" height="50" relative="1" as="geometry">
                        <mxPoint x="171" y="219" as="sourcePoint"/>
                        <mxPoint x="171" y="137" as="targetPoint"/>
                    </mxGeometry>
                </mxCell>
                <mxCell id="cQX6QBFQWD9Ic5gNz7Mt-2" value="" style="endArrow=none;dashed=1;html=1;dashPattern=1 3;strokeWidth=1;" parent="TjX_MduYWYXl7zdBqpjI-1" edge="1">
                    <mxGeometry width="50" height="50" relative="1" as="geometry">
                        <mxPoint x="181" y="219" as="sourcePoint"/>
                        <mxPoint x="181" y="151" as="targetPoint"/>
                    </mxGeometry>
                </mxCell>
                <mxCell id="cQX6QBFQWD9Ic5gNz7Mt-3" value="" style="endArrow=none;dashed=1;html=1;dashPattern=1 3;strokeWidth=1;" parent="TjX_MduYWYXl7zdBqpjI-1" edge="1">
                    <mxGeometry width="50" height="50" relative="1" as="geometry">
                        <mxPoint x="192" y="219" as="sourcePoint"/>
                        <mxPoint x="192" y="181" as="targetPoint"/>
                    </mxGeometry>
                </mxCell>
                <mxCell id="cQX6QBFQWD9Ic5gNz7Mt-4" value="" style="endArrow=none;dashed=1;html=1;dashPattern=1 3;strokeWidth=1;" parent="TjX_MduYWYXl7zdBqpjI-1" edge="1">
                    <mxGeometry width="50" height="50" relative="1" as="geometry">
                        <mxPoint x="230.77" y="219" as="sourcePoint"/>
                        <mxPoint x="231" y="156" as="targetPoint"/>
                    </mxGeometry>
                </mxCell>
                <mxCell id="cQX6QBFQWD9Ic5gNz7Mt-5" value="" style="endArrow=none;dashed=1;html=1;dashPattern=1 3;strokeWidth=1;" parent="TjX_MduYWYXl7zdBqpjI-1" edge="1">
                    <mxGeometry width="50" height="50" relative="1" as="geometry">
                        <mxPoint x="260.77" y="219" as="sourcePoint"/>
                        <mxPoint x="261" y="206" as="targetPoint"/>
                    </mxGeometry>
                </mxCell>
            </root>
        </mxGraphModel>
    </diagram>
    <diagram id="Us82Xjapbb-yqDgrsx4i" name="EventLoop">
        <mxGraphModel dx="658" dy="481" grid="1" gridSize="10" guides="1" tooltips="1" connect="1" arrows="1" fold="1" page="1" pageScale="1" pageWidth="850" pageHeight="1100" math="0" shadow="0">
            <root>
                <mxCell id="MNIC3wWy_lpZdgekECtX-0"/>
                <mxCell id="MNIC3wWy_lpZdgekECtX-1" parent="MNIC3wWy_lpZdgekECtX-0"/>
                <mxCell id="MNIC3wWy_lpZdgekECtX-2" value="" style="endArrow=classic;html=1;exitX=1;exitY=0.5;exitDx=0;exitDy=0;entryX=-0.003;entryY=0.053;entryDx=0;entryDy=0;entryPerimeter=0;" edge="1" parent="MNIC3wWy_lpZdgekECtX-1" source="PgiA3OtnCa6VzSnWm5Lt-0" target="oTD3xDbDzJjaddq1IzMM-0">
                    <mxGeometry relative="1" as="geometry">
                        <mxPoint x="150" y="130" as="sourcePoint"/>
                        <mxPoint x="240" y="130" as="targetPoint"/>
                    </mxGeometry>
                </mxCell>
                <mxCell id="MNIC3wWy_lpZdgekECtX-3" value="" style="shape=message;html=1;outlineConnect=0;" vertex="1" parent="MNIC3wWy_lpZdgekECtX-2">
                    <mxGeometry width="20" height="14" relative="1" as="geometry">
                        <mxPoint x="-10" y="-7" as="offset"/>
                    </mxGeometry>
                </mxCell>
                <mxCell id="PgiA3OtnCa6VzSnWm5Lt-3" value="&lt;b&gt;await&lt;/b&gt;" style="edgeLabel;html=1;align=center;verticalAlign=middle;resizable=0;points=[];" vertex="1" connectable="0" parent="MNIC3wWy_lpZdgekECtX-2">
                    <mxGeometry x="-0.6091" y="3" relative="1" as="geometry">
                        <mxPoint x="35" y="23" as="offset"/>
                    </mxGeometry>
                </mxCell>
                <mxCell id="PgiA3OtnCa6VzSnWm5Lt-0" value="R1" style="rounded=0;whiteSpace=wrap;html=1;fillColor=#e1d5e7;strokeColor=#9673a6;" vertex="1" parent="MNIC3wWy_lpZdgekECtX-1">
                    <mxGeometry x="110" y="120" width="30" height="20" as="geometry"/>
                </mxCell>
                <mxCell id="PgiA3OtnCa6VzSnWm5Lt-1" value="R2" style="rounded=0;whiteSpace=wrap;html=1;fillColor=#dae8fc;strokeColor=#6c8ebf;" vertex="1" parent="MNIC3wWy_lpZdgekECtX-1">
                    <mxGeometry x="110" y="160" width="30" height="20" as="geometry"/>
                </mxCell>
                <mxCell id="PgiA3OtnCa6VzSnWm5Lt-4" value="" style="endArrow=classic;html=1;exitX=1;exitY=0.5;exitDx=0;exitDy=0;entryX=0;entryY=0.5;entryDx=0;entryDy=0;" edge="1" parent="MNIC3wWy_lpZdgekECtX-1" target="oTD3xDbDzJjaddq1IzMM-0">
                    <mxGeometry relative="1" as="geometry">
                        <mxPoint x="140" y="170" as="sourcePoint"/>
                        <mxPoint x="240" y="170" as="targetPoint"/>
                    </mxGeometry>
                </mxCell>
                <mxCell id="PgiA3OtnCa6VzSnWm5Lt-5" value="" style="shape=message;html=1;outlineConnect=0;" vertex="1" parent="PgiA3OtnCa6VzSnWm5Lt-4">
                    <mxGeometry width="20" height="14" relative="1" as="geometry">
                        <mxPoint x="-10" y="-7" as="offset"/>
                    </mxGeometry>
                </mxCell>
                <mxCell id="PgiA3OtnCa6VzSnWm5Lt-6" value="&lt;b&gt;await&lt;/b&gt;" style="edgeLabel;html=1;align=center;verticalAlign=middle;resizable=0;points=[];" vertex="1" connectable="0" parent="PgiA3OtnCa6VzSnWm5Lt-4">
                    <mxGeometry x="-0.6091" y="3" relative="1" as="geometry">
                        <mxPoint x="36" y="16" as="offset"/>
                    </mxGeometry>
                </mxCell>
                <mxCell id="Goiq2AYXWCgrT5Irk4lb-3" value="R3" style="rounded=0;whiteSpace=wrap;html=1;fillColor=#d5e8d4;strokeColor=#82b366;" vertex="1" parent="MNIC3wWy_lpZdgekECtX-1">
                    <mxGeometry x="110" y="200" width="30" height="20" as="geometry"/>
                </mxCell>
                <mxCell id="Goiq2AYXWCgrT5Irk4lb-4" value="" style="endArrow=classic;html=1;exitX=1;exitY=0.5;exitDx=0;exitDy=0;entryX=0;entryY=0.75;entryDx=0;entryDy=0;" edge="1" parent="MNIC3wWy_lpZdgekECtX-1" target="oTD3xDbDzJjaddq1IzMM-0">
                    <mxGeometry relative="1" as="geometry">
                        <mxPoint x="140" y="210" as="sourcePoint"/>
                        <mxPoint x="240" y="210" as="targetPoint"/>
                        <Array as="points">
                            <mxPoint x="200" y="200"/>
                        </Array>
                    </mxGeometry>
                </mxCell>
                <mxCell id="Goiq2AYXWCgrT5Irk4lb-5" value="" style="shape=message;html=1;outlineConnect=0;" vertex="1" parent="Goiq2AYXWCgrT5Irk4lb-4">
                    <mxGeometry width="20" height="14" relative="1" as="geometry">
                        <mxPoint x="-10" y="-7" as="offset"/>
                    </mxGeometry>
                </mxCell>
                <mxCell id="Goiq2AYXWCgrT5Irk4lb-6" value="&lt;b&gt;await&lt;/b&gt;" style="edgeLabel;html=1;align=center;verticalAlign=middle;resizable=0;points=[];" vertex="1" connectable="0" parent="Goiq2AYXWCgrT5Irk4lb-4">
                    <mxGeometry x="-0.6091" y="3" relative="1" as="geometry">
                        <mxPoint x="36.82" y="11.899999999999999" as="offset"/>
                    </mxGeometry>
                </mxCell>
                <mxCell id="IeU77AGPX0BKrkDryWC2-1" style="edgeStyle=orthogonalEdgeStyle;rounded=0;orthogonalLoop=1;jettySize=auto;html=1;entryX=0.5;entryY=0;entryDx=0;entryDy=0;" edge="1" parent="MNIC3wWy_lpZdgekECtX-1" source="oTD3xDbDzJjaddq1IzMM-0" target="IeU77AGPX0BKrkDryWC2-0">
                    <mxGeometry relative="1" as="geometry"/>
                </mxCell>
                <mxCell id="oTD3xDbDzJjaddq1IzMM-0" value="Event Loop" style="shape=document;whiteSpace=wrap;html=1;boundedLbl=1;fillColor=#0050ef;strokeColor=#001DBC;fontColor=#ffffff;" vertex="1" parent="MNIC3wWy_lpZdgekECtX-1">
                    <mxGeometry x="260" y="145" width="120" height="50" as="geometry"/>
                </mxCell>
                <mxCell id="IeU77AGPX0BKrkDryWC2-0" value="decide + execute" style="rounded=0;whiteSpace=wrap;html=1;" vertex="1" parent="MNIC3wWy_lpZdgekECtX-1">
                    <mxGeometry x="260" y="220" width="120" height="20" as="geometry"/>
                </mxCell>
            </root>
        </mxGraphModel>
    </diagram>
    <diagram name="EventLoopStarting" id="E3eK5Z9-CzAReXxKY64_">
        <mxGraphModel dx="658" dy="481" grid="1" gridSize="10" guides="1" tooltips="1" connect="1" arrows="1" fold="1" page="1" pageScale="1" pageWidth="850" pageHeight="1100" math="0" shadow="0">
            <root>
                <mxCell id="HZOHUhy1LxPU4WR9bsrj-0"/>
                <mxCell id="HZOHUhy1LxPU4WR9bsrj-1" parent="HZOHUhy1LxPU4WR9bsrj-0"/>
                <mxCell id="HZOHUhy1LxPU4WR9bsrj-2" value="" style="endArrow=classic;html=1;exitX=1;exitY=0.5;exitDx=0;exitDy=0;" edge="1" parent="HZOHUhy1LxPU4WR9bsrj-1" source="B7TzyYUXzSCuk1w18iuk-6">
                    <mxGeometry relative="1" as="geometry">
                        <mxPoint x="50" y="70" as="sourcePoint"/>
                        <mxPoint x="320" y="240" as="targetPoint"/>
                        <Array as="points">
                            <mxPoint x="320" y="260"/>
                        </Array>
                    </mxGeometry>
                </mxCell>
                <mxCell id="HZOHUhy1LxPU4WR9bsrj-3" value="" style="shape=message;html=1;outlineConnect=0;" vertex="1" parent="HZOHUhy1LxPU4WR9bsrj-2">
                    <mxGeometry width="20" height="14" relative="1" as="geometry">
                        <mxPoint x="-15" y="-7" as="offset"/>
                    </mxGeometry>
                </mxCell>
                <mxCell id="B7TzyYUXzSCuk1w18iuk-5" style="edgeStyle=orthogonalEdgeStyle;rounded=0;orthogonalLoop=1;jettySize=auto;html=1;entryX=0.5;entryY=0;entryDx=0;entryDy=0;" edge="1" parent="HZOHUhy1LxPU4WR9bsrj-1" source="HZOHUhy1LxPU4WR9bsrj-5" target="B7TzyYUXzSCuk1w18iuk-0">
                    <mxGeometry relative="1" as="geometry"/>
                </mxCell>
                <mxCell id="HZOHUhy1LxPU4WR9bsrj-5" value="Event Loop" style="shape=document;whiteSpace=wrap;html=1;boundedLbl=1;fillColor=#0050ef;strokeColor=#001DBC;fontColor=#ffffff;" vertex="1" parent="HZOHUhy1LxPU4WR9bsrj-1">
                    <mxGeometry x="160" y="50" width="120" height="50" as="geometry"/>
                </mxCell>
                <mxCell id="B7TzyYUXzSCuk1w18iuk-3" style="edgeStyle=orthogonalEdgeStyle;rounded=0;orthogonalLoop=1;jettySize=auto;html=1;entryX=0.5;entryY=0;entryDx=0;entryDy=0;" edge="1" parent="HZOHUhy1LxPU4WR9bsrj-1" source="B7TzyYUXzSCuk1w18iuk-0" target="B7TzyYUXzSCuk1w18iuk-1">
                    <mxGeometry relative="1" as="geometry"/>
                </mxCell>
                <mxCell id="B7TzyYUXzSCuk1w18iuk-0" value="main()" style="rounded=0;whiteSpace=wrap;html=1;" vertex="1" parent="HZOHUhy1LxPU4WR9bsrj-1">
                    <mxGeometry x="180" y="130" width="80" height="20" as="geometry"/>
                </mxCell>
                <mxCell id="B7TzyYUXzSCuk1w18iuk-4" style="edgeStyle=orthogonalEdgeStyle;rounded=0;orthogonalLoop=1;jettySize=auto;html=1;entryX=0.5;entryY=0;entryDx=0;entryDy=0;" edge="1" parent="HZOHUhy1LxPU4WR9bsrj-1" source="B7TzyYUXzSCuk1w18iuk-1" target="B7TzyYUXzSCuk1w18iuk-2">
                    <mxGeometry relative="1" as="geometry"/>
                </mxCell>
                <mxCell id="B7TzyYUXzSCuk1w18iuk-1" value="print" style="rounded=0;whiteSpace=wrap;html=1;" vertex="1" parent="HZOHUhy1LxPU4WR9bsrj-1">
                    <mxGeometry x="180" y="170" width="80" height="20" as="geometry"/>
                </mxCell>
                <mxCell id="B7TzyYUXzSCuk1w18iuk-7" value="" style="edgeStyle=orthogonalEdgeStyle;rounded=0;orthogonalLoop=1;jettySize=auto;html=1;" edge="1" parent="HZOHUhy1LxPU4WR9bsrj-1" source="B7TzyYUXzSCuk1w18iuk-2" target="B7TzyYUXzSCuk1w18iuk-6">
                    <mxGeometry relative="1" as="geometry"/>
                </mxCell>
                <mxCell id="B7TzyYUXzSCuk1w18iuk-2" value="timeit" style="rounded=0;whiteSpace=wrap;html=1;" vertex="1" parent="HZOHUhy1LxPU4WR9bsrj-1">
                    <mxGeometry x="180" y="210" width="80" height="20" as="geometry"/>
                </mxCell>
                <mxCell id="B7TzyYUXzSCuk1w18iuk-9" value="" style="edgeStyle=orthogonalEdgeStyle;rounded=0;orthogonalLoop=1;jettySize=auto;html=1;entryX=0.5;entryY=0;entryDx=0;entryDy=0;" edge="1" parent="HZOHUhy1LxPU4WR9bsrj-1" source="B7TzyYUXzSCuk1w18iuk-6" target="C61zzGTdV9POinG9UV8U-0">
                    <mxGeometry relative="1" as="geometry">
                        <mxPoint x="220" y="290" as="targetPoint"/>
                    </mxGeometry>
                </mxCell>
                <mxCell id="B7TzyYUXzSCuk1w18iuk-6" value="&lt;b&gt;await &lt;/b&gt;asyncio.gather" style="rounded=0;whiteSpace=wrap;html=1;fillColor=#ffe6cc;strokeColor=#d79b00;" vertex="1" parent="HZOHUhy1LxPU4WR9bsrj-1">
                    <mxGeometry x="160" y="250" width="120" height="20" as="geometry"/>
                </mxCell>
                <mxCell id="E6CJkvSvG2j4JzyvrPyY-12" value="" style="edgeStyle=orthogonalEdgeStyle;rounded=0;orthogonalLoop=1;jettySize=auto;html=1;" edge="1" parent="HZOHUhy1LxPU4WR9bsrj-1" source="C61zzGTdV9POinG9UV8U-0" target="E6CJkvSvG2j4JzyvrPyY-11">
                    <mxGeometry relative="1" as="geometry"/>
                </mxCell>
                <mxCell id="C61zzGTdV9POinG9UV8U-0" value="url = ..." style="rounded=0;whiteSpace=wrap;html=1;fillColor=#e1d5e7;strokeColor=#9673a6;" vertex="1" parent="HZOHUhy1LxPU4WR9bsrj-1">
                    <mxGeometry x="180" y="290" width="80" height="20" as="geometry"/>
                </mxCell>
                <mxCell id="E6CJkvSvG2j4JzyvrPyY-0" value="" style="rounded=0;whiteSpace=wrap;html=1;" vertex="1" parent="HZOHUhy1LxPU4WR9bsrj-1">
                    <mxGeometry x="40" y="15" width="90" height="105" as="geometry"/>
                </mxCell>
                <mxCell id="E6CJkvSvG2j4JzyvrPyY-1" value="" style="rounded=0;whiteSpace=wrap;html=1;fillColor=#e1d5e7;strokeColor=#9673a6;" vertex="1" parent="HZOHUhy1LxPU4WR9bsrj-1">
                    <mxGeometry x="50" y="40" width="30" height="20" as="geometry"/>
                </mxCell>
                <mxCell id="E6CJkvSvG2j4JzyvrPyY-2" value="R1" style="text;html=1;strokeColor=none;fillColor=none;align=center;verticalAlign=middle;whiteSpace=wrap;rounded=0;" vertex="1" parent="HZOHUhy1LxPU4WR9bsrj-1">
                    <mxGeometry x="80" y="40" width="40" height="20" as="geometry"/>
                </mxCell>
                <mxCell id="E6CJkvSvG2j4JzyvrPyY-3" value="" style="rounded=0;whiteSpace=wrap;html=1;fillColor=#dae8fc;strokeColor=#6c8ebf;" vertex="1" parent="HZOHUhy1LxPU4WR9bsrj-1">
                    <mxGeometry x="50" y="65" width="30" height="20" as="geometry"/>
                </mxCell>
                <mxCell id="E6CJkvSvG2j4JzyvrPyY-4" value="R2" style="text;html=1;strokeColor=none;fillColor=none;align=center;verticalAlign=middle;whiteSpace=wrap;rounded=0;" vertex="1" parent="HZOHUhy1LxPU4WR9bsrj-1">
                    <mxGeometry x="80" y="65" width="40" height="20" as="geometry"/>
                </mxCell>
                <mxCell id="E6CJkvSvG2j4JzyvrPyY-5" value="" style="rounded=0;whiteSpace=wrap;html=1;fillColor=#d5e8d4;strokeColor=#82b366;" vertex="1" parent="HZOHUhy1LxPU4WR9bsrj-1">
                    <mxGeometry x="50" y="90" width="30" height="20" as="geometry"/>
                </mxCell>
                <mxCell id="E6CJkvSvG2j4JzyvrPyY-6" value="R3" style="text;html=1;strokeColor=none;fillColor=none;align=center;verticalAlign=middle;whiteSpace=wrap;rounded=0;" vertex="1" parent="HZOHUhy1LxPU4WR9bsrj-1">
                    <mxGeometry x="80" y="90" width="40" height="20" as="geometry"/>
                </mxCell>
                <mxCell id="E6CJkvSvG2j4JzyvrPyY-9" value="&lt;b&gt;Legend&lt;/b&gt;" style="text;html=1;strokeColor=none;fillColor=none;align=center;verticalAlign=middle;whiteSpace=wrap;rounded=0;" vertex="1" parent="HZOHUhy1LxPU4WR9bsrj-1">
                    <mxGeometry x="50" y="20" width="65" height="20" as="geometry"/>
                </mxCell>
                <mxCell id="E6CJkvSvG2j4JzyvrPyY-14" value="" style="edgeStyle=orthogonalEdgeStyle;rounded=0;orthogonalLoop=1;jettySize=auto;html=1;" edge="1" parent="HZOHUhy1LxPU4WR9bsrj-1" source="E6CJkvSvG2j4JzyvrPyY-11" target="E6CJkvSvG2j4JzyvrPyY-13">
                    <mxGeometry relative="1" as="geometry"/>
                </mxCell>
                <mxCell id="E6CJkvSvG2j4JzyvrPyY-11" value="print(...)" style="rounded=0;whiteSpace=wrap;html=1;fillColor=#e1d5e7;strokeColor=#9673a6;" vertex="1" parent="HZOHUhy1LxPU4WR9bsrj-1">
                    <mxGeometry x="180" y="330" width="80" height="20" as="geometry"/>
                </mxCell>
                <mxCell id="E6CJkvSvG2j4JzyvrPyY-26" style="edgeStyle=orthogonalEdgeStyle;rounded=0;orthogonalLoop=1;jettySize=auto;html=1;entryX=0.5;entryY=0;entryDx=0;entryDy=0;strokeColor=#000000;" edge="1" parent="HZOHUhy1LxPU4WR9bsrj-1" source="E6CJkvSvG2j4JzyvrPyY-13" target="E6CJkvSvG2j4JzyvrPyY-19">
                    <mxGeometry relative="1" as="geometry"/>
                </mxCell>
                <mxCell id="E6CJkvSvG2j4JzyvrPyY-13" value="&lt;b&gt;await&lt;/b&gt; resp.text()" style="rounded=0;whiteSpace=wrap;html=1;fillColor=#e1d5e7;strokeColor=#9673a6;" vertex="1" parent="HZOHUhy1LxPU4WR9bsrj-1">
                    <mxGeometry x="170" y="370" width="100" height="20" as="geometry"/>
                </mxCell>
                <mxCell id="E6CJkvSvG2j4JzyvrPyY-15" value="" style="endArrow=classic;html=1;exitX=1;exitY=0.5;exitDx=0;exitDy=0;" edge="1" parent="HZOHUhy1LxPU4WR9bsrj-1" source="E6CJkvSvG2j4JzyvrPyY-13">
                    <mxGeometry relative="1" as="geometry">
                        <mxPoint x="290" y="270" as="sourcePoint"/>
                        <mxPoint x="320" y="360" as="targetPoint"/>
                        <Array as="points">
                            <mxPoint x="320" y="380"/>
                        </Array>
                    </mxGeometry>
                </mxCell>
                <mxCell id="E6CJkvSvG2j4JzyvrPyY-16" value="" style="shape=message;html=1;outlineConnect=0;" vertex="1" parent="E6CJkvSvG2j4JzyvrPyY-15">
                    <mxGeometry width="20" height="14" relative="1" as="geometry">
                        <mxPoint x="-10" y="-7" as="offset"/>
                    </mxGeometry>
                </mxCell>
                <mxCell id="E6CJkvSvG2j4JzyvrPyY-18" value="" style="edgeStyle=orthogonalEdgeStyle;rounded=0;orthogonalLoop=1;jettySize=auto;html=1;fillColor=#dae8fc;" edge="1" parent="HZOHUhy1LxPU4WR9bsrj-1" source="E6CJkvSvG2j4JzyvrPyY-19" target="E6CJkvSvG2j4JzyvrPyY-21">
                    <mxGeometry relative="1" as="geometry"/>
                </mxCell>
                <mxCell id="E6CJkvSvG2j4JzyvrPyY-19" value="url = ..." style="rounded=0;whiteSpace=wrap;html=1;fillColor=#dae8fc;strokeColor=#6c8ebf;" vertex="1" parent="HZOHUhy1LxPU4WR9bsrj-1">
                    <mxGeometry x="180" y="410" width="80" height="20" as="geometry"/>
                </mxCell>
                <mxCell id="E6CJkvSvG2j4JzyvrPyY-20" value="" style="edgeStyle=orthogonalEdgeStyle;rounded=0;orthogonalLoop=1;jettySize=auto;html=1;fillColor=#dae8fc;" edge="1" parent="HZOHUhy1LxPU4WR9bsrj-1" source="E6CJkvSvG2j4JzyvrPyY-21" target="E6CJkvSvG2j4JzyvrPyY-22">
                    <mxGeometry relative="1" as="geometry"/>
                </mxCell>
                <mxCell id="E6CJkvSvG2j4JzyvrPyY-21" value="print(...)" style="rounded=0;whiteSpace=wrap;html=1;fillColor=#dae8fc;strokeColor=#6c8ebf;" vertex="1" parent="HZOHUhy1LxPU4WR9bsrj-1">
                    <mxGeometry x="180" y="450" width="80" height="20" as="geometry"/>
                </mxCell>
                <mxCell id="E6CJkvSvG2j4JzyvrPyY-35" style="edgeStyle=orthogonalEdgeStyle;rounded=0;orthogonalLoop=1;jettySize=auto;html=1;entryX=0.5;entryY=0;entryDx=0;entryDy=0;strokeColor=#000000;" edge="1" parent="HZOHUhy1LxPU4WR9bsrj-1" source="E6CJkvSvG2j4JzyvrPyY-22" target="E6CJkvSvG2j4JzyvrPyY-28">
                    <mxGeometry relative="1" as="geometry"/>
                </mxCell>
                <mxCell id="E6CJkvSvG2j4JzyvrPyY-22" value="&lt;b&gt;await&lt;/b&gt; resp.text()" style="rounded=0;whiteSpace=wrap;html=1;fillColor=#dae8fc;strokeColor=#6c8ebf;" vertex="1" parent="HZOHUhy1LxPU4WR9bsrj-1">
                    <mxGeometry x="170" y="490" width="100" height="20" as="geometry"/>
                </mxCell>
                <mxCell id="E6CJkvSvG2j4JzyvrPyY-23" value="" style="endArrow=classic;html=1;exitX=1;exitY=0.5;exitDx=0;exitDy=0;fillColor=#dae8fc;" edge="1" parent="HZOHUhy1LxPU4WR9bsrj-1" source="E6CJkvSvG2j4JzyvrPyY-22">
                    <mxGeometry relative="1" as="geometry">
                        <mxPoint x="290" y="390" as="sourcePoint"/>
                        <mxPoint x="320" y="480" as="targetPoint"/>
                        <Array as="points">
                            <mxPoint x="320" y="500"/>
                        </Array>
                    </mxGeometry>
                </mxCell>
                <mxCell id="E6CJkvSvG2j4JzyvrPyY-24" value="" style="shape=message;html=1;outlineConnect=0;" vertex="1" parent="E6CJkvSvG2j4JzyvrPyY-23">
                    <mxGeometry width="20" height="14" relative="1" as="geometry">
                        <mxPoint x="-10" y="-7" as="offset"/>
                    </mxGeometry>
                </mxCell>
                <mxCell id="E6CJkvSvG2j4JzyvrPyY-27" value="" style="edgeStyle=orthogonalEdgeStyle;rounded=0;orthogonalLoop=1;jettySize=auto;html=1;fillColor=#dae8fc;" edge="1" parent="HZOHUhy1LxPU4WR9bsrj-1" source="E6CJkvSvG2j4JzyvrPyY-28" target="E6CJkvSvG2j4JzyvrPyY-30">
                    <mxGeometry relative="1" as="geometry"/>
                </mxCell>
                <mxCell id="E6CJkvSvG2j4JzyvrPyY-28" value="url = ..." style="rounded=0;whiteSpace=wrap;html=1;fillColor=#d5e8d4;strokeColor=#82b366;" vertex="1" parent="HZOHUhy1LxPU4WR9bsrj-1">
                    <mxGeometry x="180" y="530" width="80" height="20" as="geometry"/>
                </mxCell>
                <mxCell id="E6CJkvSvG2j4JzyvrPyY-29" value="" style="edgeStyle=orthogonalEdgeStyle;rounded=0;orthogonalLoop=1;jettySize=auto;html=1;fillColor=#dae8fc;" edge="1" parent="HZOHUhy1LxPU4WR9bsrj-1" source="E6CJkvSvG2j4JzyvrPyY-30" target="E6CJkvSvG2j4JzyvrPyY-31">
                    <mxGeometry relative="1" as="geometry"/>
                </mxCell>
                <mxCell id="E6CJkvSvG2j4JzyvrPyY-30" value="print(...)" style="rounded=0;whiteSpace=wrap;html=1;fillColor=#d5e8d4;strokeColor=#82b366;" vertex="1" parent="HZOHUhy1LxPU4WR9bsrj-1">
                    <mxGeometry x="180" y="570" width="80" height="20" as="geometry"/>
                </mxCell>
                <mxCell id="E6CJkvSvG2j4JzyvrPyY-37" value="" style="edgeStyle=orthogonalEdgeStyle;rounded=0;orthogonalLoop=1;jettySize=auto;html=1;strokeColor=#000000;" edge="1" parent="HZOHUhy1LxPU4WR9bsrj-1" source="E6CJkvSvG2j4JzyvrPyY-31">
                    <mxGeometry relative="1" as="geometry">
                        <mxPoint x="220" y="650" as="targetPoint"/>
                    </mxGeometry>
                </mxCell>
                <mxCell id="E6CJkvSvG2j4JzyvrPyY-38" value="..." style="edgeLabel;html=1;align=center;verticalAlign=middle;resizable=0;points=[];" vertex="1" connectable="0" parent="E6CJkvSvG2j4JzyvrPyY-37">
                    <mxGeometry x="0.7778" y="1" relative="1" as="geometry">
                        <mxPoint x="-1" y="17" as="offset"/>
                    </mxGeometry>
                </mxCell>
                <mxCell id="E6CJkvSvG2j4JzyvrPyY-31" value="&lt;b&gt;await&lt;/b&gt; resp.text()" style="rounded=0;whiteSpace=wrap;html=1;fillColor=#d5e8d4;strokeColor=#82b366;" vertex="1" parent="HZOHUhy1LxPU4WR9bsrj-1">
                    <mxGeometry x="170" y="610" width="100" height="20" as="geometry"/>
                </mxCell>
                <mxCell id="E6CJkvSvG2j4JzyvrPyY-32" value="" style="endArrow=classic;html=1;exitX=1;exitY=0.5;exitDx=0;exitDy=0;fillColor=#dae8fc;" edge="1" parent="HZOHUhy1LxPU4WR9bsrj-1" source="E6CJkvSvG2j4JzyvrPyY-31">
                    <mxGeometry relative="1" as="geometry">
                        <mxPoint x="290" y="510" as="sourcePoint"/>
                        <mxPoint x="320" y="600" as="targetPoint"/>
                        <Array as="points">
                            <mxPoint x="320" y="620"/>
                        </Array>
                    </mxGeometry>
                </mxCell>
                <mxCell id="E6CJkvSvG2j4JzyvrPyY-33" value="" style="shape=message;html=1;outlineConnect=0;" vertex="1" parent="E6CJkvSvG2j4JzyvrPyY-32">
                    <mxGeometry width="20" height="14" relative="1" as="geometry">
                        <mxPoint x="-10" y="-7" as="offset"/>
                    </mxGeometry>
                </mxCell>
            </root>
        </mxGraphModel>
    </diagram>
    <diagram name="EventLoopDeciding" id="vb2qILQWBOiLd9zHytyP">
        <mxGraphModel dx="658" dy="481" grid="1" gridSize="10" guides="1" tooltips="1" connect="1" arrows="1" fold="1" page="1" pageScale="1" pageWidth="850" pageHeight="1100" math="0" shadow="0">
            <root>
                <mxCell id="6AcwTFoUrhKqUxjJOT8r-0"/>
                <mxCell id="6AcwTFoUrhKqUxjJOT8r-1" parent="6AcwTFoUrhKqUxjJOT8r-0"/>
                <mxCell id="6AcwTFoUrhKqUxjJOT8r-5" style="edgeStyle=orthogonalEdgeStyle;rounded=0;orthogonalLoop=1;jettySize=auto;html=1;entryX=0.5;entryY=0;entryDx=0;entryDy=0;" edge="1" parent="6AcwTFoUrhKqUxjJOT8r-1" source="6AcwTFoUrhKqUxjJOT8r-6">
                    <mxGeometry relative="1" as="geometry">
                        <mxPoint x="220" y="130" as="targetPoint"/>
                    </mxGeometry>
                </mxCell>
                <mxCell id="6AcwTFoUrhKqUxjJOT8r-6" value="Event Loop" style="shape=document;whiteSpace=wrap;html=1;boundedLbl=1;fillColor=#0050ef;strokeColor=#001DBC;fontColor=#ffffff;" vertex="1" parent="6AcwTFoUrhKqUxjJOT8r-1">
                    <mxGeometry x="160" y="50" width="120" height="50" as="geometry"/>
                </mxCell>
                <mxCell id="6AcwTFoUrhKqUxjJOT8r-17" value="" style="rounded=0;whiteSpace=wrap;html=1;" vertex="1" parent="6AcwTFoUrhKqUxjJOT8r-1">
                    <mxGeometry x="40" y="15" width="90" height="105" as="geometry"/>
                </mxCell>
                <mxCell id="6AcwTFoUrhKqUxjJOT8r-18" value="" style="rounded=0;whiteSpace=wrap;html=1;fillColor=#e1d5e7;strokeColor=#9673a6;" vertex="1" parent="6AcwTFoUrhKqUxjJOT8r-1">
                    <mxGeometry x="50" y="40" width="30" height="20" as="geometry"/>
                </mxCell>
                <mxCell id="6AcwTFoUrhKqUxjJOT8r-19" value="R1" style="text;html=1;strokeColor=none;fillColor=none;align=center;verticalAlign=middle;whiteSpace=wrap;rounded=0;" vertex="1" parent="6AcwTFoUrhKqUxjJOT8r-1">
                    <mxGeometry x="80" y="40" width="40" height="20" as="geometry"/>
                </mxCell>
                <mxCell id="6AcwTFoUrhKqUxjJOT8r-20" value="" style="rounded=0;whiteSpace=wrap;html=1;fillColor=#dae8fc;strokeColor=#6c8ebf;" vertex="1" parent="6AcwTFoUrhKqUxjJOT8r-1">
                    <mxGeometry x="50" y="65" width="30" height="20" as="geometry"/>
                </mxCell>
                <mxCell id="6AcwTFoUrhKqUxjJOT8r-21" value="R2" style="text;html=1;strokeColor=none;fillColor=none;align=center;verticalAlign=middle;whiteSpace=wrap;rounded=0;" vertex="1" parent="6AcwTFoUrhKqUxjJOT8r-1">
                    <mxGeometry x="80" y="65" width="40" height="20" as="geometry"/>
                </mxCell>
                <mxCell id="6AcwTFoUrhKqUxjJOT8r-22" value="" style="rounded=0;whiteSpace=wrap;html=1;fillColor=#d5e8d4;strokeColor=#82b366;" vertex="1" parent="6AcwTFoUrhKqUxjJOT8r-1">
                    <mxGeometry x="50" y="90" width="30" height="20" as="geometry"/>
                </mxCell>
                <mxCell id="6AcwTFoUrhKqUxjJOT8r-23" value="R3" style="text;html=1;strokeColor=none;fillColor=none;align=center;verticalAlign=middle;whiteSpace=wrap;rounded=0;" vertex="1" parent="6AcwTFoUrhKqUxjJOT8r-1">
                    <mxGeometry x="80" y="90" width="40" height="20" as="geometry"/>
                </mxCell>
                <mxCell id="6AcwTFoUrhKqUxjJOT8r-24" value="&lt;b&gt;Legend&lt;/b&gt;" style="text;html=1;strokeColor=none;fillColor=none;align=center;verticalAlign=middle;whiteSpace=wrap;rounded=0;" vertex="1" parent="6AcwTFoUrhKqUxjJOT8r-1">
                    <mxGeometry x="50" y="20" width="65" height="20" as="geometry"/>
                </mxCell>
                <mxCell id="6AcwTFoUrhKqUxjJOT8r-74" style="edgeStyle=orthogonalEdgeStyle;rounded=0;orthogonalLoop=1;jettySize=auto;html=1;entryX=0.5;entryY=0;entryDx=0;entryDy=0;strokeColor=#000000;fontColor=#FF0000;" edge="1" parent="6AcwTFoUrhKqUxjJOT8r-1" source="6AcwTFoUrhKqUxjJOT8r-35" target="6AcwTFoUrhKqUxjJOT8r-67">
                    <mxGeometry relative="1" as="geometry"/>
                </mxCell>
                <mxCell id="6AcwTFoUrhKqUxjJOT8r-35" value="print(...)" style="rounded=0;whiteSpace=wrap;html=1;fillColor=#dae8fc;strokeColor=#6c8ebf;" vertex="1" parent="6AcwTFoUrhKqUxjJOT8r-1">
                    <mxGeometry x="180" y="220" width="80" height="20" as="geometry"/>
                </mxCell>
                <mxCell id="P1nTiWuF7AQ9Np6Qp2c4-7" style="edgeStyle=orthogonalEdgeStyle;rounded=0;orthogonalLoop=1;jettySize=auto;html=1;entryX=0.5;entryY=0;entryDx=0;entryDy=0;strokeColor=#000000;fontColor=#FF0000;" edge="1" parent="6AcwTFoUrhKqUxjJOT8r-1" source="6AcwTFoUrhKqUxjJOT8r-37" target="P1nTiWuF7AQ9Np6Qp2c4-4">
                    <mxGeometry relative="1" as="geometry"/>
                </mxCell>
                <mxCell id="6AcwTFoUrhKqUxjJOT8r-37" value="&lt;b&gt;await&lt;/b&gt; resp.text()" style="rounded=0;whiteSpace=wrap;html=1;fillColor=#e1d5e7;strokeColor=#9673a6;" vertex="1" parent="6AcwTFoUrhKqUxjJOT8r-1">
                    <mxGeometry x="170" y="300" width="100" height="20" as="geometry"/>
                </mxCell>
                <mxCell id="6AcwTFoUrhKqUxjJOT8r-38" value="" style="endArrow=classic;html=1;exitX=1;exitY=0.5;exitDx=0;exitDy=0;fillColor=#dae8fc;" edge="1" parent="6AcwTFoUrhKqUxjJOT8r-1" source="6AcwTFoUrhKqUxjJOT8r-37">
                    <mxGeometry relative="1" as="geometry">
                        <mxPoint x="290" y="200" as="sourcePoint"/>
                        <mxPoint x="320" y="290" as="targetPoint"/>
                        <Array as="points">
                            <mxPoint x="320" y="310"/>
                        </Array>
                    </mxGeometry>
                </mxCell>
                <mxCell id="6AcwTFoUrhKqUxjJOT8r-39" value="" style="shape=message;html=1;outlineConnect=0;" vertex="1" parent="6AcwTFoUrhKqUxjJOT8r-38">
                    <mxGeometry width="20" height="14" relative="1" as="geometry">
                        <mxPoint x="-10" y="-7" as="offset"/>
                    </mxGeometry>
                </mxCell>
                <mxCell id="6AcwTFoUrhKqUxjJOT8r-45" value="" style="edgeStyle=orthogonalEdgeStyle;rounded=0;orthogonalLoop=1;jettySize=auto;html=1;strokeColor=#000000;exitX=0.5;exitY=1;exitDx=0;exitDy=0;" edge="1" parent="6AcwTFoUrhKqUxjJOT8r-1" source="P1nTiWuF7AQ9Np6Qp2c4-8">
                    <mxGeometry relative="1" as="geometry">
                        <mxPoint x="220" y="520" as="targetPoint"/>
                    </mxGeometry>
                </mxCell>
                <mxCell id="6AcwTFoUrhKqUxjJOT8r-46" value="..." style="edgeLabel;html=1;align=center;verticalAlign=middle;resizable=0;points=[];" vertex="1" connectable="0" parent="6AcwTFoUrhKqUxjJOT8r-45">
                    <mxGeometry x="0.7778" y="1" relative="1" as="geometry">
                        <mxPoint x="-1" y="13" as="offset"/>
                    </mxGeometry>
                </mxCell>
                <mxCell id="6AcwTFoUrhKqUxjJOT8r-65" style="edgeStyle=orthogonalEdgeStyle;rounded=0;orthogonalLoop=1;jettySize=auto;html=1;entryX=0.5;entryY=0;entryDx=0;entryDy=0;strokeColor=#000000;" edge="1" parent="6AcwTFoUrhKqUxjJOT8r-1" source="6AcwTFoUrhKqUxjJOT8r-57" target="6AcwTFoUrhKqUxjJOT8r-61">
                    <mxGeometry relative="1" as="geometry"/>
                </mxCell>
                <mxCell id="6AcwTFoUrhKqUxjJOT8r-57" value="&lt;b&gt;await&lt;/b&gt; resp.text()" style="rounded=0;whiteSpace=wrap;html=1;fillColor=#e1d5e7;strokeColor=#9673a6;" vertex="1" parent="6AcwTFoUrhKqUxjJOT8r-1">
                    <mxGeometry x="170" y="130" width="100" height="20" as="geometry"/>
                </mxCell>
                <mxCell id="6AcwTFoUrhKqUxjJOT8r-58" value="" style="endArrow=classic;html=1;exitX=1;exitY=0.5;exitDx=0;exitDy=0;" edge="1" parent="6AcwTFoUrhKqUxjJOT8r-1" source="6AcwTFoUrhKqUxjJOT8r-57">
                    <mxGeometry relative="1" as="geometry">
                        <mxPoint x="290" y="30" as="sourcePoint"/>
                        <mxPoint x="320" y="120" as="targetPoint"/>
                        <Array as="points">
                            <mxPoint x="320" y="140"/>
                        </Array>
                    </mxGeometry>
                </mxCell>
                <mxCell id="6AcwTFoUrhKqUxjJOT8r-59" value="" style="shape=message;html=1;outlineConnect=0;" vertex="1" parent="6AcwTFoUrhKqUxjJOT8r-58">
                    <mxGeometry width="20" height="14" relative="1" as="geometry">
                        <mxPoint x="-10" y="-7" as="offset"/>
                    </mxGeometry>
                </mxCell>
                <mxCell id="6AcwTFoUrhKqUxjJOT8r-72" style="edgeStyle=orthogonalEdgeStyle;rounded=0;orthogonalLoop=1;jettySize=auto;html=1;entryX=0.5;entryY=0;entryDx=0;entryDy=0;strokeColor=#000000;fontColor=#FF0000;" edge="1" parent="6AcwTFoUrhKqUxjJOT8r-1" source="6AcwTFoUrhKqUxjJOT8r-61" target="6AcwTFoUrhKqUxjJOT8r-35">
                    <mxGeometry relative="1" as="geometry"/>
                </mxCell>
                <mxCell id="6AcwTFoUrhKqUxjJOT8r-73" value="DONE!" style="edgeLabel;html=1;align=center;verticalAlign=middle;resizable=0;points=[];fontColor=#FF0000;" vertex="1" connectable="0" parent="6AcwTFoUrhKqUxjJOT8r-72">
                    <mxGeometry x="-0.7467" y="-4" relative="1" as="geometry">
                        <mxPoint x="4" y="4" as="offset"/>
                    </mxGeometry>
                </mxCell>
                <mxCell id="6AcwTFoUrhKqUxjJOT8r-61" value="&lt;b&gt;await&lt;/b&gt; resp.text()" style="rounded=0;whiteSpace=wrap;html=1;fillColor=#dae8fc;strokeColor=#6c8ebf;" vertex="1" parent="6AcwTFoUrhKqUxjJOT8r-1">
                    <mxGeometry x="170" y="170" width="100" height="20" as="geometry"/>
                </mxCell>
                <mxCell id="vZcL1fWg0m2LzAgEYwaK-0" value="" style="edgeStyle=orthogonalEdgeStyle;rounded=0;orthogonalLoop=1;jettySize=auto;html=1;strokeColor=#000000;fontColor=#FF0000;" edge="1" parent="6AcwTFoUrhKqUxjJOT8r-1" source="6AcwTFoUrhKqUxjJOT8r-67" target="6AcwTFoUrhKqUxjJOT8r-37">
                    <mxGeometry relative="1" as="geometry"/>
                </mxCell>
                <mxCell id="6AcwTFoUrhKqUxjJOT8r-67" value="&lt;b&gt;await&lt;/b&gt; resp.text()" style="rounded=0;whiteSpace=wrap;html=1;fillColor=#d5e8d4;strokeColor=#82b366;" vertex="1" parent="6AcwTFoUrhKqUxjJOT8r-1">
                    <mxGeometry x="170" y="260" width="100" height="20" as="geometry"/>
                </mxCell>
                <mxCell id="6AcwTFoUrhKqUxjJOT8r-68" value="" style="endArrow=classic;html=1;exitX=1;exitY=0.5;exitDx=0;exitDy=0;" edge="1" parent="6AcwTFoUrhKqUxjJOT8r-1" source="6AcwTFoUrhKqUxjJOT8r-67">
                    <mxGeometry relative="1" as="geometry">
                        <mxPoint x="290" y="160" as="sourcePoint"/>
                        <mxPoint x="320" y="250" as="targetPoint"/>
                        <Array as="points">
                            <mxPoint x="320" y="270"/>
                        </Array>
                    </mxGeometry>
                </mxCell>
                <mxCell id="6AcwTFoUrhKqUxjJOT8r-69" value="" style="shape=message;html=1;outlineConnect=0;" vertex="1" parent="6AcwTFoUrhKqUxjJOT8r-68">
                    <mxGeometry width="20" height="14" relative="1" as="geometry">
                        <mxPoint x="-10" y="-7" as="offset"/>
                    </mxGeometry>
                </mxCell>
                <mxCell id="P1nTiWuF7AQ9Np6Qp2c4-12" style="edgeStyle=orthogonalEdgeStyle;rounded=0;orthogonalLoop=1;jettySize=auto;html=1;entryX=0.5;entryY=0;entryDx=0;entryDy=0;strokeColor=#000000;fontColor=#FF0000;" edge="1" parent="6AcwTFoUrhKqUxjJOT8r-1" source="P1nTiWuF7AQ9Np6Qp2c4-0" target="P1nTiWuF7AQ9Np6Qp2c4-11">
                    <mxGeometry relative="1" as="geometry"/>
                </mxCell>
                <mxCell id="P1nTiWuF7AQ9Np6Qp2c4-0" value="&lt;b&gt;await&lt;/b&gt; resp.text()" style="rounded=0;whiteSpace=wrap;html=1;fillColor=#e1d5e7;strokeColor=#9673a6;" vertex="1" parent="6AcwTFoUrhKqUxjJOT8r-1">
                    <mxGeometry x="170" y="380" width="100" height="20" as="geometry"/>
                </mxCell>
                <mxCell id="P1nTiWuF7AQ9Np6Qp2c4-1" value="" style="endArrow=classic;html=1;exitX=1;exitY=0.5;exitDx=0;exitDy=0;fillColor=#dae8fc;" edge="1" parent="6AcwTFoUrhKqUxjJOT8r-1" source="P1nTiWuF7AQ9Np6Qp2c4-0">
                    <mxGeometry relative="1" as="geometry">
                        <mxPoint x="290" y="280" as="sourcePoint"/>
                        <mxPoint x="320" y="370" as="targetPoint"/>
                        <Array as="points">
                            <mxPoint x="320" y="390"/>
                        </Array>
                    </mxGeometry>
                </mxCell>
                <mxCell id="P1nTiWuF7AQ9Np6Qp2c4-2" value="" style="shape=message;html=1;outlineConnect=0;" vertex="1" parent="P1nTiWuF7AQ9Np6Qp2c4-1">
                    <mxGeometry width="20" height="14" relative="1" as="geometry">
                        <mxPoint x="-10" y="-7" as="offset"/>
                    </mxGeometry>
                </mxCell>
                <mxCell id="P1nTiWuF7AQ9Np6Qp2c4-3" value="" style="edgeStyle=orthogonalEdgeStyle;rounded=0;orthogonalLoop=1;jettySize=auto;html=1;strokeColor=#000000;fontColor=#FF0000;" edge="1" parent="6AcwTFoUrhKqUxjJOT8r-1" source="P1nTiWuF7AQ9Np6Qp2c4-4" target="P1nTiWuF7AQ9Np6Qp2c4-0">
                    <mxGeometry relative="1" as="geometry"/>
                </mxCell>
                <mxCell id="P1nTiWuF7AQ9Np6Qp2c4-4" value="&lt;b&gt;await&lt;/b&gt; resp.text()" style="rounded=0;whiteSpace=wrap;html=1;fillColor=#d5e8d4;strokeColor=#82b366;" vertex="1" parent="6AcwTFoUrhKqUxjJOT8r-1">
                    <mxGeometry x="170" y="340" width="100" height="20" as="geometry"/>
                </mxCell>
                <mxCell id="P1nTiWuF7AQ9Np6Qp2c4-5" value="" style="endArrow=classic;html=1;exitX=1;exitY=0.5;exitDx=0;exitDy=0;" edge="1" parent="6AcwTFoUrhKqUxjJOT8r-1" source="P1nTiWuF7AQ9Np6Qp2c4-4">
                    <mxGeometry relative="1" as="geometry">
                        <mxPoint x="290" y="240" as="sourcePoint"/>
                        <mxPoint x="320" y="330" as="targetPoint"/>
                        <Array as="points">
                            <mxPoint x="320" y="350"/>
                        </Array>
                    </mxGeometry>
                </mxCell>
                <mxCell id="P1nTiWuF7AQ9Np6Qp2c4-6" value="" style="shape=message;html=1;outlineConnect=0;" vertex="1" parent="P1nTiWuF7AQ9Np6Qp2c4-5">
                    <mxGeometry width="20" height="14" relative="1" as="geometry">
                        <mxPoint x="-10" y="-7" as="offset"/>
                    </mxGeometry>
                </mxCell>
                <mxCell id="P1nTiWuF7AQ9Np6Qp2c4-8" value="print(...)" style="rounded=0;whiteSpace=wrap;html=1;fillColor=#d5e8d4;strokeColor=#82b366;" vertex="1" parent="6AcwTFoUrhKqUxjJOT8r-1">
                    <mxGeometry x="180" y="470" width="80" height="20" as="geometry"/>
                </mxCell>
                <mxCell id="P1nTiWuF7AQ9Np6Qp2c4-9" style="edgeStyle=orthogonalEdgeStyle;rounded=0;orthogonalLoop=1;jettySize=auto;html=1;entryX=0.5;entryY=0;entryDx=0;entryDy=0;strokeColor=#000000;fontColor=#FF0000;" edge="1" parent="6AcwTFoUrhKqUxjJOT8r-1" source="P1nTiWuF7AQ9Np6Qp2c4-11" target="P1nTiWuF7AQ9Np6Qp2c4-8">
                    <mxGeometry relative="1" as="geometry"/>
                </mxCell>
                <mxCell id="P1nTiWuF7AQ9Np6Qp2c4-10" value="DONE!" style="edgeLabel;html=1;align=center;verticalAlign=middle;resizable=0;points=[];fontColor=#FF0000;" vertex="1" connectable="0" parent="P1nTiWuF7AQ9Np6Qp2c4-9">
                    <mxGeometry x="-0.7467" y="-4" relative="1" as="geometry">
                        <mxPoint x="4" y="4" as="offset"/>
                    </mxGeometry>
                </mxCell>
                <mxCell id="P1nTiWuF7AQ9Np6Qp2c4-11" value="&lt;b&gt;await&lt;/b&gt; resp.text()" style="rounded=0;whiteSpace=wrap;html=1;fillColor=#d5e8d4;strokeColor=#82b366;" vertex="1" parent="6AcwTFoUrhKqUxjJOT8r-1">
                    <mxGeometry x="170" y="420" width="100" height="20" as="geometry"/>
                </mxCell>
            </root>
        </mxGraphModel>
    </diagram>
</mxfile>
